<?xml version="1.0" encoding="utf-8"?>
<!-- Generator: Adobe Illustrator 16.0.0, SVG Export Plug-In . SVG Version: 6.00 Build 0)  -->
<!DOCTYPE svg PUBLIC "-//W3C//DTD SVG 1.1//EN" "http://www.w3.org/Graphics/SVG/1.1/DTD/svg11.dtd">
<svg version="1.1" id="Слой_1" xmlns="http://www.w3.org/2000/svg" xmlns:xlink="http://www.w3.org/1999/xlink" x="0px" y="0px"
	 width="512px" height="512px" viewBox="0 0 512 512" enable-background="new 0 0 512 512" xml:space="preserve">
<path id="V_kontakte_1_" fill="#D73351" d="M-177.955,126.738c2.644,0,3.73-1.763,3.691-3.961c-0.133-8.315,3.105-12.794,8.949-6.96
	c6.461,6.458,7.796,10.922,15.648,10.922c2.981,0,11,0,13.894,0c10.932,0,1.189-10.953-6.512-18.097
	c-7.321-6.788-7.669-6.945-1.36-15.115c7.829-10.141,18.063-23.211,9.009-23.211c-1.772,0-0.506,0-17.288,0
	c-3.36,0-3.605,1.957-4.795,4.774c-4.318,10.171-12.531,23.357-15.649,21.34c-3.27-2.103-1.773-9.249-1.519-21.625
	c0.063-3.265,0.043-5.519-4.96-6.676c-13.66-3.169-25.503,3.062-20.671,3.957c6.827,1.272,6.17,14.828,4.582,21.195
	c-2.77,11.084-13.186-8.77-17.524-18.663c-1.047-2.38-1.365-4.297-5.107-4.297c-2.049,0-11.098,0-14.137,0
	c-2.721,0-4.059,1.245-3.106,3.774c0.95,2.523,11.89,26.958,24.822,40.902C-198.021,127.896-186.188,126.738-177.955,126.738z"/>
</svg>
